<svg width="30" height="20" viewBox="0 0 30 20" fill="none" xmlns="http://www.w3.org/2000/svg">
<path fill-rule="evenodd" clip-rule="evenodd" d="M28.552 1.82086C27.6243 0.125041 25.4975 -0.497609 23.8016 0.430124L3.30902 11.6412C2.70282 11.9729 2.20835 12.4765 1.88795 13.0886L0.268412 16.1829C-0.503686 17.658 0.47334 19.444 2.132 19.5893L5.61106 19.8942C6.29939 19.9545 6.99021 19.8097 7.59641 19.4781L28.089 8.267C29.7848 7.33927 30.4075 5.21247 29.4797 3.51664L28.552 1.82086ZM24.9215 2.47714C25.4868 2.16792 26.1957 2.37545 26.505 2.94074L27.4327 4.63654C27.742 5.20183 27.5345 5.91076 26.9691 6.21998L23.1021 8.33555L21.0546 4.59274L24.9215 2.47714ZM19.0074 5.7126L4.4289 13.6882C4.22684 13.7988 4.06202 13.9667 3.95521 14.1707L2.3357 17.2649L5.81477 17.5697C6.04421 17.5898 6.27446 17.5416 6.47652 17.4311L21.0551 9.45543L19.0074 5.7126Z" fill="#0F0F0F"/>
</svg>
